<svg xmlns="http://www.w3.org/2000/svg" width="1080" height="590" viewBox="0 0 1080 590">
<rect width="1080" height="590" fill="#fbfcfe"/>
<g font-family="-apple-system,BlinkMacSystemFont,Segoe UI,sans-serif" fill="#172033">
<text x="52" y="34" font-size="20" font-weight="700">E5 fault injection and recovery</text>
<text x="52" y="57" font-size="12" fill="#556176">Median authorization decision accuracy across three trials; fault active from 60 to 120 seconds.</text>
<rect x="265.0" y="100" width="190.0" height="350" fill="#fee2e2"/>
<text x="360.0" y="118" text-anchor="middle" font-size="11" fill="#991b1b">dependency stopped</text>
<path d="M75 450.0 H1025" stroke="#e2e8f0"/>
<text x="66" y="454.0" text-anchor="end" font-size="10">0%</text>
<path d="M75 362.5 H1025" stroke="#e2e8f0"/>
<text x="66" y="366.5" text-anchor="end" font-size="10">25%</text>
<path d="M75 275.0 H1025" stroke="#e2e8f0"/>
<text x="66" y="279.0" text-anchor="end" font-size="10">50%</text>
<path d="M75 187.5 H1025" stroke="#e2e8f0"/>
<text x="66" y="191.5" text-anchor="end" font-size="10">75%</text>
<path d="M75 100.0 H1025" stroke="#e2e8f0"/>
<text x="66" y="104.0" text-anchor="end" font-size="10">100%</text>
<polyline points="90.8,100.0 122.5,100.0 154.2,100.0 185.8,100.0 217.5,100.0 249.2,100.0 280.8,447.2 312.5,450.0 344.2,450.0 375.8,450.0 407.5,450.0 439.2,450.0 470.8,154.6 502.5,100.0 534.2,100.0 565.8,100.0 597.5,100.0 629.2,100.0 660.8,100.0 692.5,100.0 724.2,100.0 755.8,100.0 787.5,100.0 819.2,100.0 850.8,100.0 882.5,100.0 914.2,100.0 945.8,100.0 977.5,100.0 1009.2,100.0" fill="none" stroke="#dc2626" stroke-width="2.5"/>
<polyline points="90.8,100.0 122.5,100.0 154.2,100.0 185.8,100.0 217.5,100.0 249.2,100.0 280.8,100.0 312.5,100.0 344.2,100.0 375.8,100.0 407.5,355.8 439.2,450.0 470.8,333.8 502.5,100.0 534.2,100.0 565.8,100.0 597.5,100.0 629.2,100.0 660.8,100.0 692.5,100.0 724.2,100.0 755.8,100.0 787.5,100.0 819.2,100.0 850.8,100.0 882.5,100.0 914.2,100.0 945.8,100.0 977.5,100.0 1009.2,100.0" fill="none" stroke="#7c3aed" stroke-width="2.5"/>
<polyline points="90.8,100.0 122.5,100.0 154.2,100.0 185.8,100.0 217.5,100.0 249.2,100.0 280.8,443.0 312.5,450.0 344.2,450.0 375.8,450.0 407.5,450.0 439.2,450.0 470.8,229.9 502.5,100.0 534.2,100.0 565.8,100.0 597.5,100.0 629.2,100.0 660.8,100.0 692.5,100.0 724.2,100.0 755.8,100.0 787.5,100.0 819.2,100.0 850.8,100.0 882.5,100.0 914.2,100.0 945.8,100.0 977.5,100.0 1009.2,100.0" fill="none" stroke="#2563eb" stroke-width="2.5"/>
<polyline points="90.8,100.0 122.5,100.0 154.2,100.0 185.8,100.0 217.5,100.0 249.2,100.0 280.8,446.5 312.5,450.0 344.2,450.0 375.8,450.0 407.5,450.0 439.2,450.0 470.8,198.8 502.5,100.0 534.2,100.0 565.8,100.0 597.5,100.0 629.2,100.0 660.8,100.0 692.5,100.0 724.2,100.0 755.8,100.0 787.5,100.0 819.2,100.0 850.8,100.0 882.5,100.0 914.2,100.0 945.8,100.0 977.5,100.0 1009.2,100.0" fill="none" stroke="#d97706" stroke-width="2.5"/>
<text x="75.0" y="474" text-anchor="middle" font-size="10">0s</text>
<text x="265.0" y="474" text-anchor="middle" font-size="10">60s</text>
<text x="455.0" y="474" text-anchor="middle" font-size="10">120s</text>
<text x="645.0" y="474" text-anchor="middle" font-size="10">180s</text>
<text x="835.0" y="474" text-anchor="middle" font-size="10">240s</text>
<text x="1025.0" y="474" text-anchor="middle" font-size="10">300s</text>
<path d="M180 515 h28" stroke="#dc2626" stroke-width="3"/>
<text x="216" y="519" font-size="11">openfga</text>
<path d="M385 515 h28" stroke="#7c3aed" stroke-width="3"/>
<text x="421" y="519" font-size="11">keycloak</text>
<path d="M590 515 h28" stroke="#2563eb" stroke-width="3"/>
<text x="626" y="519" font-size="11">api</text>
<path d="M795 515 h28" stroke="#d97706" stroke-width="3"/>
<text x="831" y="519" font-size="11">db</text>
<text x="75" y="555" font-size="11" fill="#667085">Every trial: over-permit 0; final consistency passed; recovery confirmation 40 seconds.</text>
</g></svg>